<?xml version="1.0" standalone="no"?>
<!DOCTYPE svg PUBLIC "-//W3C//DTD SVG 20010904//EN"
 "http://www.w3.org/TR/2001/REC-SVG-20010904/DTD/svg10.dtd">
<svg version="1.0" xmlns="http://www.w3.org/2000/svg"
 width="245.000000pt" height="289.000000pt" viewBox="0 0 245.000000 289.000000"
 preserveAspectRatio="xMidYMid meet">
<metadata>
Created by potrace 1.16, written by Peter Selinger 2001-2019
</metadata>
<g transform="translate(0.000000,289.000000) scale(0.100000,-0.100000)"
fill="#000000" stroke="none">
<path d="M1095 2844 c-385 -36 -604 -121 -772 -298 -109 -114 -189 -272 -228
-448 -51 -231 -57 -303 -62 -673 -6 -475 16 -637 116 -850 99 -210 319 -394
572 -478 151 -51 236 -62 474 -62 283 0 419 23 623 106 137 56 228 116 321
215 67 71 91 105 131 189 117 244 168 661 141 1148 -26 468 -100 680 -309 883
-131 127 -313 204 -592 250 -86 14 -342 25 -415 18z m357 -68 c131 -17 248
-43 356 -80 251 -86 437 -311 512 -617 44 -179 59 -742 27 -1014 -46 -392
-102 -532 -279 -701 -180 -173 -420 -256 -797 -278 -237 -14 -518 45 -725 151
-247 128 -418 405 -456 738 -20 182 -8 747 21 945 46 324 175 559 378 694 203
135 617 205 963 162z"/>
<path d="M1156 2752 c-3 -5 5 -17 16 -27 21 -17 21 -18 3 -31 -10 -8 -25 -14
-32 -14 -7 0 -13 -7 -13 -15 0 -21 23 -19 53 5 50 39 61 23 22 -34 -35 -51
-31 -56 11 -15 l35 34 20 -24 c25 -30 20 -43 -17 -56 -16 -5 -31 -10 -32 -11
-2 -2 -1 -16 3 -33 7 -33 25 -33 25 -1 0 18 27 40 49 40 16 0 13 -21 -6 -43
-18 -19 -17 -19 14 -12 30 6 34 4 44 -22 11 -28 7 -141 -6 -175 -4 -11 -20
-18 -43 -20 l-37 -4 28 -12 c17 -7 27 -19 27 -33 0 -31 -57 -196 -78 -224 -25
-36 -45 -32 -37 6 11 49 -11 26 -30 -31 -9 -27 -21 -52 -26 -55 -34 -22 21
-42 58 -22 16 9 43 21 61 27 18 7 37 22 43 32 16 30 2 34 -20 7 -31 -38 -35
-16 -7 37 14 27 28 66 31 87 8 49 60 107 134 148 255 142 297 175 371 285 27
42 48 79 45 84 -9 15 -178 71 -273 91 -155 32 -423 51 -436 31z"/>
<path d="M939 2735 c-92 -16 -244 -56 -320 -84 -230 -87 -406 -345 -463 -680
-20 -116 -21 -174 -3 -169 6 3 14 18 15 34 2 17 27 57 62 100 32 39 75 98 94
131 28 48 44 64 76 77 39 16 42 15 74 -6 49 -34 176 -156 176 -169 0 -28 -35
-119 -45 -119 -15 0 -53 42 -105 118 -59 85 -85 84 -163 -12 -42 -52 -44 -57
-39 -105 5 -54 -1 -61 -39 -41 -27 15 -37 -14 -15 -39 19 -21 8 -35 -18 -25
-21 8 -66 -3 -66 -16 0 -6 18 -10 39 -10 59 0 59 -17 -1 -43 -86 -38 -82 -24
-82 -321 1 -264 13 -433 41 -561 16 -75 77 -212 116 -259 l24 -29 21 21 c24
24 25 43 26 498 1 160 -4 174 -75 196 -21 6 -36 15 -33 19 6 11 461 12 467 2
3 -5 8 -30 12 -58 l8 -49 -32 26 c-41 35 -104 44 -179 27 l-57 -14 -7 -55 c-3
-30 -6 -85 -7 -123 -1 -64 0 -68 25 -77 14 -6 55 -10 92 -10 74 0 125 22 137
59 13 41 25 20 25 -44 0 -36 4 -65 8 -65 5 0 28 50 51 111 24 60 47 109 53
107 6 -2 42 -71 80 -153 38 -83 104 -224 146 -314 l77 -165 47 -20 c27 -11 48
-24 48 -28 0 -4 -59 -8 -132 -8 -79 0 -128 4 -123 9 6 5 19 11 29 13 43 7 42
32 -4 133 -32 70 -50 99 -68 106 -34 13 -163 11 -191 -4 -27 -14 -68 -106 -78
-172 -5 -42 -4 -45 26 -62 17 -10 31 -21 31 -25 0 -5 -47 -8 -105 -8 -58 0
-105 3 -105 8 0 4 15 16 34 26 30 16 39 33 100 191 36 95 66 182 66 192 0 24
-35 58 -73 72 -36 14 -115 14 -154 0 -27 -9 -31 -16 -37 -62 -8 -66 -6 -214 3
-247 5 -18 17 -28 44 -34 20 -5 37 -13 37 -17 0 -6 -154 -23 -175 -19 -45 9
-44 -7 1 -62 105 -126 300 -230 501 -268 122 -22 282 -40 370 -40 202 0 446
51 598 124 89 44 185 109 185 126 0 5 -38 20 -84 34 l-84 26 -37 68 c-79 143
-142 233 -243 349 -58 65 -82 82 -82 57 0 -8 38 -55 85 -104 77 -82 126 -150
108 -150 -11 0 -210 197 -263 260 -77 92 -139 184 -175 262 -37 81 -76 123
-175 189 -36 23 -89 66 -119 93 -56 53 -131 142 -131 156 0 4 12 11 26 14 14
4 24 12 22 19 -9 29 -219 104 -254 90 -20 -7 -18 -16 22 -94 30 -58 40 -69 61
-69 20 0 24 -4 20 -20 -3 -12 0 -20 8 -20 7 0 15 -7 19 -15 8 -22 26 -18 26 5
0 22 18 28 24 8 2 -7 9 -32 16 -56 7 -23 11 -44 8 -47 -2 -3 -39 8 -82 23 -71
26 -79 33 -113 83 -19 30 -50 70 -68 89 -42 45 -85 109 -85 126 0 8 8 22 18
32 15 15 38 17 180 17 89 -1 162 2 162 6 0 12 -61 29 -105 29 -61 0 -71 16
-55 87 15 69 50 127 88 147 16 8 35 23 43 32 15 19 16 19 -36 -2 -25 -10 -17
10 34 82 70 100 124 146 211 179 73 28 140 79 140 106 0 7 -19 -6 -43 -29 -46
-46 -96 -66 -139 -56 -19 4 -33 -1 -49 -17 -17 -17 -29 -20 -60 -16 -26 3 -42
0 -50 -9 -15 -19 -43 -18 -60 2 -10 13 -10 17 2 25 8 5 20 9 27 9 6 0 12 5 12
11 0 7 -14 8 -40 4 l-40 -7 0 41 c0 42 25 71 63 71 23 0 109 44 126 64 8 9 22
16 32 16 10 0 21 5 24 10 3 6 1 10 -4 10 -6 0 -11 4 -11 9 0 8 76 41 97 41 6
0 27 7 48 16 28 11 35 18 26 27 -6 6 -11 24 -11 39 0 26 -3 28 -37 27 -21 -1
-72 -7 -114 -14z"/>
<path d="M1861 2465 c-67 -99 -106 -144 -200 -231 -64 -59 -118 -112 -119
-116 -2 -5 8 -3 22 3 14 7 29 9 34 5 7 -8 -12 -25 -93 -86 l-47 -34 -19 23
c-11 13 -19 27 -19 31 0 4 21 22 48 38 26 17 65 50 87 73 l40 41 -66 -45 c-37
-24 -90 -57 -118 -73 -55 -31 -65 -51 -28 -56 34 -5 33 -39 -3 -73 -35 -33
-39 -51 -9 -35 28 16 34 7 14 -24 -9 -14 -38 -33 -63 -42 -57 -21 -74 -34 -45
-34 40 0 78 21 123 68 25 26 70 61 100 77 30 17 65 45 77 64 28 41 105 99 203
153 78 43 216 159 271 229 60 76 18 52 -74 -42 -66 -68 -119 -112 -187 -153
-52 -32 -107 -66 -122 -77 -34 -23 -38 -24 -38 -1 0 30 29 60 108 114 128 86
282 247 269 281 -3 7 -18 20 -34 29 l-29 17 -83 -124z"/>
<path d="M2102 2358 c-76 -111 -333 -317 -415 -332 -19 -4 -40 -12 -45 -19
-12 -14 83 -14 283 -2 155 10 338 53 349 82 4 8 1 34 -5 57 -16 59 -93 218
-117 239 -20 18 -21 17 -50 -25z"/>
<path d="M1527 1962 c-15 -15 -27 -33 -27 -40 0 -6 -17 -20 -38 -31 -21 -11
-44 -27 -51 -35 -7 -9 -38 -30 -67 -47 -56 -32 -59 -44 -18 -59 40 -15 30 -33
-13 -25 -55 11 -72 11 -74 0 0 -5 20 -17 45 -25 26 -8 44 -20 42 -26 -3 -7 29
-35 69 -64 41 -29 92 -74 115 -101 55 -66 74 -64 97 7 23 75 51 104 101 104
44 0 111 -39 157 -91 30 -35 39 -51 95 -191 34 -84 68 -121 125 -137 38 -10
68 -5 103 17 30 19 28 38 -5 47 -38 9 -95 53 -127 97 -39 55 -18 47 58 -22 78
-70 103 -79 148 -53 61 36 89 177 71 358 -9 93 11 87 -183 62 -69 -9 -187 -18
-263 -19 -135 -3 -138 -2 -156 21 -17 22 -20 23 -54 10 -26 -9 -40 -10 -48 -2
-6 6 -29 8 -52 6 -23 -3 -55 0 -70 6 -23 9 -27 15 -22 33 6 17 4 20 -11 14
-37 -14 -104 -19 -104 -8 0 17 87 95 121 109 18 7 29 20 29 32 0 10 13 30 29
44 17 14 27 28 24 31 -11 10 -19 7 -46 -22z"/>
<path d="M1583 1893 c-46 -43 -78 -99 -63 -108 6 -3 14 -3 20 0 5 3 29 1 52
-6 61 -16 446 -12 583 7 129 18 150 23 138 35 -5 5 -44 2 -93 -7 -99 -19 -410
-31 -410 -17 0 5 10 19 23 30 18 17 41 22 127 27 174 11 350 45 350 68 0 11
-14 9 -145 -20 -49 -11 -128 -24 -174 -28 -70 -6 -86 -4 -96 9 -10 14 -16 13
-65 -4 -59 -20 -184 -26 -210 -9 -12 7 -11 13 10 34 38 42 0 32 -47 -11z"/>
<path d="M1660 1463 c-8 -3 -26 -14 -39 -24 -13 -11 -32 -19 -43 -19 -16 0
-18 -5 -13 -32 9 -47 -12 -164 -40 -222 -13 -27 -21 -55 -17 -60 3 -6 37 -52
74 -103 37 -50 73 -103 79 -117 7 -14 15 -26 19 -26 16 0 60 -81 90 -165 37
-106 69 -152 122 -173 36 -14 37 -16 22 -33 -17 -19 -6 -33 16 -18 23 14 37
11 43 -11 7 -26 24 -26 32 0 9 28 21 25 35 -10 7 -16 18 -30 25 -30 23 0 95
92 131 167 19 39 46 114 59 166 20 80 31 152 61 420 7 63 -6 59 -67 -19 -53
-68 -102 -93 -187 -93 -106 -2 -187 69 -231 203 l-19 57 22 -20 c31 -29 36
-26 23 15 -14 46 -82 123 -124 140 -34 15 -49 16 -73 7z"/>
<path d="M812 898 c-7 -13 -23 -54 -36 -93 -13 -38 -27 -78 -31 -87 -6 -16 1
-18 79 -18 104 0 104 1 49 123 -45 101 -47 103 -61 75z"/>
</g>
</svg>
